# xmcd
#
# Track frame offsets: 
#        150
#        14082
#        28305
#        39470
#        52325
#        68412
#        84107
#        94232
#        116615
#        128622
#        141607
#        159562
#        171302
#        184860
#        201262
#        214440
#        231392
#
# Disc length: 3246 seconds
#
# Revision: 2
# Processed by: cddbd v1.5.2PL0 Copyright (c) Steve Scherf et al.
# Submitted via: ExactAudioCopy v0.99pb4
#
DISCID=020cac11
DTITLE=Various Artist - Motown Chartbusters - Volume 9
DYEAR=1998
DGENRE=Soul
TTITLE0=Diana Ross - All Of My Life
TTITLE1=Stevie Wonder - Higher Ground
TTITLE2=Jackson 5 - Dancing Machine
TTITLE3=Diana Ross and Marvin Gaye - My Mistake (Was To Love You)
TTITLE4=Syreeta - Spinnin' And Spinnin'
TTITLE5=Eddie Kendricks - Keep On Truckin'
TTITLE6=R. Dean Taylor - There's A Ghost In My House
TTITLE7=Smokey Robinson - Just My Soul Responding
TTITLE8=Diana Ross - Last Time I Saw Him
TTITLE9=Diana Ross and Marvin Gaye - You Are Everything
TTITLE10=Stevie Wonder - He's Misstra Know It All
TTITLE11=Diana Ross and The Supremes - Baby Love
TTITLE12=Jimmy Ruffin - What Becomes Of The Brokenhearted
TTITLE13=Stevie Wonder - Living For The City
TTITLE14=Diana Ross - Love Me
TTITLE15=Eddie Kendricks - Boogie Down
TTITLE16=Commodores - Machine Gun
EXTD=
EXTT0=
EXTT1=
EXTT2=
EXTT3=
EXTT4=
EXTT5=
EXTT6=
EXTT7=
EXTT8=
EXTT9=
EXTT10=
EXTT11=
EXTT12=
EXTT13=
EXTT14=
EXTT15=
EXTT16=
PLAYORDER=
